<?xml version="1.0" encoding="UTF-8" standalone="no"?>
<svg xmlns:dc="http://purl.org/dc/elements/1.1/" xmlns:cc="http://creativecommons.org/ns#" xmlns:rdf="http://www.w3.org/1999/02/22-rdf-syntax-ns#" xmlns:svg="http://www.w3.org/2000/svg" xmlns="http://www.w3.org/2000/svg" height="405.63226" width="650" viewBox="0 0 649.99998 405.63226" version="1.1" id="svg895">
  <metadata id="metadata899">
    <rdf:RDF>
      <cc:Work rdf:about="">
        <dc:format>image/svg+xml</dc:format>
        <dc:type rdf:resource="http://purl.org/dc/dcmitype/StillImage"/>
        <dc:title>Asset 1</dc:title>
      </cc:Work>
    </rdf:RDF>
  </metadata>
  <defs id="defs879">
    <style type="text/css" id="style877">.a{opacity:0;}.b{fill:#fff;}.c{fill:#ff5f00;}.d{fill:#eb001b;}.e{fill:#f79e1b;}</style>
  </defs>
  <title id="title881">Asset 1</title>
  <rect style="display:inline;fill:#ff5f00;stroke-width:5.49381161" class="c" x="229.83263" y="47.297737" width="190.41551" height="311.0047" id="rect887"/>
  <path style="fill:#eb001b;stroke-width:5.49381161" class="d" d="m 249.44554,202.82756 a 197.44759,197.44759 0 0 1 75.53991,-155.474867 197.77722,197.77722 0 1 0 0,311.004677 197.44759,197.44759 0 0 1 -75.53991,-155.52981 z" id="path889"/>
  <path style="fill:#f79e1b;stroke-width:5.49381161" class="e" d="m 626.1013,325.3945 v -6.37282 h 2.7469 v -1.31852 h -6.53764 v 1.31852 h 2.5821 v 6.37282 z m 12.6907,0 v -7.69134 h -1.97778 l -2.3074,5.49381 -2.3074,-5.49381 h -1.97777 v 7.69134 h 1.42839 v -5.82344 l 2.14259,4.99937 h 1.48333 l 2.14258,-4.99937 v 5.82344 z" id="path891"/>
  <path style="fill:#f79e1b;stroke-width:5.49381161" class="e" d="m 645,202.82756 a 197.77722,197.77722 0 0 1 -320.01455,155.47487 197.77722,197.77722 0 0 0 0,-311.004675 A 197.77722,197.77722 0 0 1 645,202.77262 Z" id="path893"/>
</svg>